<?xml version="1.0" standalone="no"?><!DOCTYPE svg PUBLIC "-//W3C//DTD SVG 1.1//EN" "http://www.w3.org/Graphics/SVG/1.1/DTD/svg11.dtd"><svg t="1605166352715" class="icon" viewBox="0 0 1024 1024" version="1.1" xmlns="http://www.w3.org/2000/svg" p-id="3626" xmlns:xlink="http://www.w3.org/1999/xlink" width="200" height="200"><defs><style type="text/css"></style></defs><path d="M384 167.04A24.96 24.96 0 0 1 408.96 192v192A24.96 24.96 0 0 1 384 408.96H192A24.96 24.96 0 0 1 167.04 384V192A24.96 24.96 0 0 1 192 167.04h192M384 106.666667H192a85.333333 85.333333 0 0 0-85.333333 85.333333v192a85.333333 85.333333 0 0 0 85.333333 85.333333h192a85.333333 85.333333 0 0 0 85.333333-85.333333V192a85.333333 85.333333 0 0 0-85.333333-85.333333zM384 593.706667A24.96 24.96 0 0 1 408.96 618.666667v192A24.96 24.96 0 0 1 384 835.626667H192A24.96 24.96 0 0 1 167.04 810.666667v-192A24.96 24.96 0 0 1 192 593.706667h192M384 533.333333H192a85.333333 85.333333 0 0 0-85.333333 85.333334v192a85.333333 85.333333 0 0 0 85.333333 85.333333h192a85.333333 85.333333 0 0 0 85.333333-85.333333v-192a85.333333 85.333333 0 0 0-85.333333-85.333334zM810.666667 167.04A24.96 24.96 0 0 1 835.626667 192v192A24.96 24.96 0 0 1 810.666667 408.96h-192A24.96 24.96 0 0 1 593.706667 384V192A24.96 24.96 0 0 1 618.666667 167.04h192M810.666667 106.666667h-192a85.333333 85.333333 0 0 0-85.333334 85.333333v192a85.333333 85.333333 0 0 0 85.333334 85.333333h192a85.333333 85.333333 0 0 0 85.333333-85.333333V192a85.333333 85.333333 0 0 0-85.333333-85.333333zM714.666667 593.706667a120.96 120.96 0 1 1-120.96 120.96 120.96 120.96 0 0 1 120.96-120.96m0-60.373334a181.333333 181.333333 0 1 0 181.333333 181.333334 181.333333 181.333333 0 0 0-181.333333-181.333334z" p-id="3627"></path><path d="M911.36 943.146667a32 32 0 0 1-22.613333-9.386667l-68.48-68.48a32 32 0 0 1 45.226666-45.226667l68.48 68.48a32 32 0 0 1-22.613333 54.613334z" p-id="3628"></path></svg>